<mxfile host="app.diagrams.net" modified="2023-12-20T10:17:17.545Z" agent="Mozilla/5.0 (Windows NT 10.0; Win64; x64) AppleWebKit/537.36 (KHTML, like Gecko) Chrome/120.0.0.0 Safari/537.36 Edg/120.0.0.0" etag="21Wh9cyv1jxIutXjDdI2" version="22.1.11" type="google">
  <diagram name="第 1 页" id="bqjFycA_bWMykfGMcf2n">
    <mxGraphModel grid="1" page="1" gridSize="10" guides="1" tooltips="1" connect="1" arrows="1" fold="1" pageScale="1" pageWidth="827" pageHeight="1169" math="0" shadow="0">
      <root>
        <mxCell id="0" />
        <mxCell id="1" parent="0" />
        <mxCell id="n6OKS5SeyEPI8-EwVOu3-11" value="" style="rounded=0;whiteSpace=wrap;html=1;rotation=90;fillColor=#00FF00;" vertex="1" parent="1">
          <mxGeometry x="90" y="230" width="60" height="20" as="geometry" />
        </mxCell>
        <mxCell id="n6OKS5SeyEPI8-EwVOu3-10" value="" style="endArrow=none;dashed=1;html=1;rounded=0;" edge="1" parent="1">
          <mxGeometry width="50" height="50" relative="1" as="geometry">
            <mxPoint x="120" y="420" as="sourcePoint" />
            <mxPoint x="120" y="190" as="targetPoint" />
          </mxGeometry>
        </mxCell>
        <mxCell id="n6OKS5SeyEPI8-EwVOu3-12" value="" style="rounded=0;whiteSpace=wrap;html=1;fillColor=#00FF00;rotation=90;" vertex="1" parent="1">
          <mxGeometry x="105" y="420" width="30" height="20" as="geometry" />
        </mxCell>
        <mxCell id="n6OKS5SeyEPI8-EwVOu3-17" value="" style="group" connectable="0" vertex="1" parent="1">
          <mxGeometry x="90" y="130" width="50" height="40" as="geometry" />
        </mxCell>
        <mxCell id="n6OKS5SeyEPI8-EwVOu3-15" value="" style="group" connectable="0" vertex="1" parent="n6OKS5SeyEPI8-EwVOu3-17">
          <mxGeometry width="50" height="40" as="geometry" />
        </mxCell>
        <mxCell id="n6OKS5SeyEPI8-EwVOu3-1" value="" style="ellipse;whiteSpace=wrap;html=1;container=0;fillColor=#00FF00;" vertex="1" parent="n6OKS5SeyEPI8-EwVOu3-15">
          <mxGeometry x="10.714285714285722" width="28.571428571428577" height="16" as="geometry" />
        </mxCell>
        <mxCell id="n6OKS5SeyEPI8-EwVOu3-2" value="" style="endArrow=none;html=1;rounded=0;" edge="1" parent="n6OKS5SeyEPI8-EwVOu3-15">
          <mxGeometry width="50" height="50" relative="1" as="geometry">
            <mxPoint y="16" as="sourcePoint" />
            <mxPoint x="50" y="16" as="targetPoint" />
          </mxGeometry>
        </mxCell>
        <mxCell id="n6OKS5SeyEPI8-EwVOu3-3" value="" style="endArrow=none;html=1;rounded=0;" edge="1" parent="n6OKS5SeyEPI8-EwVOu3-15">
          <mxGeometry width="50" height="50" relative="1" as="geometry">
            <mxPoint x="25" y="40" as="sourcePoint" />
            <mxPoint x="25" y="16" as="targetPoint" />
            <Array as="points" />
          </mxGeometry>
        </mxCell>
        <mxCell id="n6OKS5SeyEPI8-EwVOu3-16" value="" style="endArrow=none;html=1;rounded=0;" edge="1" parent="n6OKS5SeyEPI8-EwVOu3-17">
          <mxGeometry width="50" height="50" relative="1" as="geometry">
            <mxPoint x="10" y="50" as="sourcePoint" />
            <mxPoint x="40" y="50" as="targetPoint" />
            <Array as="points">
              <mxPoint x="25" y="40" />
            </Array>
          </mxGeometry>
        </mxCell>
        <mxCell id="n6OKS5SeyEPI8-EwVOu3-19" value=": SystemAssitant" style="text;html=1;strokeColor=none;fillColor=#00FF00;align=center;verticalAlign=middle;whiteSpace=wrap;rounded=0;" vertex="1" parent="1">
          <mxGeometry x="240" y="120" width="100" height="40" as="geometry" />
        </mxCell>
        <mxCell id="n6OKS5SeyEPI8-EwVOu3-21" value="" style="endArrow=classic;html=1;rounded=0;exitX=0.5;exitY=0;exitDx=0;exitDy=0;" edge="1" parent="1" source="n6OKS5SeyEPI8-EwVOu3-11">
          <mxGeometry width="50" height="50" relative="1" as="geometry">
            <mxPoint x="220" y="265" as="sourcePoint" />
            <mxPoint x="280" y="230" as="targetPoint" />
          </mxGeometry>
        </mxCell>
        <mxCell id="n6OKS5SeyEPI8-EwVOu3-20" value="" style="rounded=0;whiteSpace=wrap;html=1;rotation=90;fillColor=#00FF00;" vertex="1" parent="1">
          <mxGeometry x="260" y="220" width="70" height="20" as="geometry" />
        </mxCell>
        <mxCell id="n6OKS5SeyEPI8-EwVOu3-29" value="" style="rounded=0;whiteSpace=wrap;html=1;rotation=90;fillColor=#00FF00;" vertex="1" parent="1">
          <mxGeometry x="170" y="320" width="70" height="20" as="geometry" />
        </mxCell>
        <mxCell id="n6OKS5SeyEPI8-EwVOu3-35" value="" style="endArrow=none;dashed=1;html=1;rounded=0;entryX=0.5;entryY=1;entryDx=0;entryDy=0;" edge="1" parent="1" target="n6OKS5SeyEPI8-EwVOu3-34">
          <mxGeometry width="50" height="50" relative="1" as="geometry">
            <mxPoint x="290" y="430" as="sourcePoint" />
            <mxPoint x="290" y="160" as="targetPoint" />
          </mxGeometry>
        </mxCell>
        <mxCell id="n6OKS5SeyEPI8-EwVOu3-34" value="" style="rounded=0;whiteSpace=wrap;html=1;fillColor=#00FF00;rotation=90;" vertex="1" parent="1">
          <mxGeometry x="275" y="420" width="30" height="20" as="geometry" />
        </mxCell>
        <mxCell id="n6OKS5SeyEPI8-EwVOu3-36" value=": CarCatalog" style="text;html=1;strokeColor=none;fillColor=#00FF00;align=center;verticalAlign=middle;whiteSpace=wrap;rounded=0;" vertex="1" parent="1">
          <mxGeometry x="400" y="120" width="74" height="30" as="geometry" />
        </mxCell>
        <mxCell id="n6OKS5SeyEPI8-EwVOu3-37" value="" style="rounded=0;whiteSpace=wrap;html=1;rotation=90;fillColor=#00FF00;" vertex="1" parent="1">
          <mxGeometry x="402" y="220" width="70" height="20" as="geometry" />
        </mxCell>
        <mxCell id="n6OKS5SeyEPI8-EwVOu3-38" value="" style="endArrow=none;dashed=1;html=1;rounded=0;entryX=0.5;entryY=1;entryDx=0;entryDy=0;exitX=0;exitY=0.5;exitDx=0;exitDy=0;" edge="1" parent="1" source="n6OKS5SeyEPI8-EwVOu3-37" target="n6OKS5SeyEPI8-EwVOu3-36">
          <mxGeometry width="50" height="50" relative="1" as="geometry">
            <mxPoint x="470" y="210" as="sourcePoint" />
            <mxPoint x="450" y="160" as="targetPoint" />
          </mxGeometry>
        </mxCell>
        <mxCell id="n6OKS5SeyEPI8-EwVOu3-39" value="" style="endArrow=classic;html=1;rounded=0;entryX=0.357;entryY=1.15;entryDx=0;entryDy=0;entryPerimeter=0;" edge="1" parent="1" target="n6OKS5SeyEPI8-EwVOu3-37">
          <mxGeometry width="50" height="50" relative="1" as="geometry">
            <mxPoint x="310" y="220" as="sourcePoint" />
            <mxPoint x="360" y="170" as="targetPoint" />
          </mxGeometry>
        </mxCell>
        <mxCell id="n6OKS5SeyEPI8-EwVOu3-45" value="" style="endArrow=block;dashed=1;endFill=0;endSize=12;html=1;rounded=0;entryX=0.75;entryY=0;entryDx=0;entryDy=0;exitX=0.75;exitY=1;exitDx=0;exitDy=0;fillColor=#1A1A1A;" edge="1" parent="1" source="n6OKS5SeyEPI8-EwVOu3-37" target="n6OKS5SeyEPI8-EwVOu3-20">
          <mxGeometry width="160" relative="1" as="geometry">
            <mxPoint x="360" y="280" as="sourcePoint" />
            <mxPoint x="520" y="280" as="targetPoint" />
          </mxGeometry>
        </mxCell>
        <mxCell id="n6OKS5SeyEPI8-EwVOu3-46" value=":&amp;nbsp; car" style="text;html=1;strokeColor=none;fillColor=#00FF00;align=center;verticalAlign=middle;whiteSpace=wrap;rounded=0;" vertex="1" parent="1">
          <mxGeometry x="560" y="120" width="60" height="30" as="geometry" />
        </mxCell>
        <mxCell id="n6OKS5SeyEPI8-EwVOu3-51" value="" style="rounded=0;whiteSpace=wrap;html=1;fillColor=#00FF00;rotation=90;" vertex="1" parent="1">
          <mxGeometry x="580" y="410" width="30" height="20" as="geometry" />
        </mxCell>
        <mxCell id="n6OKS5SeyEPI8-EwVOu3-53" value="" style="endArrow=none;dashed=1;html=1;dashPattern=1 3;strokeWidth=2;rounded=0;entryX=0.5;entryY=1;entryDx=0;entryDy=0;" edge="1" parent="1">
          <mxGeometry width="50" height="50" relative="1" as="geometry">
            <mxPoint x="600" y="405" as="sourcePoint" />
            <mxPoint x="600" y="145" as="targetPoint" />
          </mxGeometry>
        </mxCell>
        <mxCell id="n6OKS5SeyEPI8-EwVOu3-55" value="管理者" style="text;html=1;strokeColor=none;fillColor=none;align=center;verticalAlign=middle;whiteSpace=wrap;rounded=0;" vertex="1" parent="1">
          <mxGeometry x="85" y="180" width="60" height="30" as="geometry" />
        </mxCell>
        <mxCell id="n6OKS5SeyEPI8-EwVOu3-56" value="findCar()" style="text;html=1;strokeColor=none;fillColor=none;align=center;verticalAlign=middle;whiteSpace=wrap;rounded=0;" vertex="1" parent="1">
          <mxGeometry x="170" y="200" width="60" height="30" as="geometry" />
        </mxCell>
        <mxCell id="n6OKS5SeyEPI8-EwVOu3-58" value="findCar()" style="text;html=1;strokeColor=none;fillColor=none;align=center;verticalAlign=middle;whiteSpace=wrap;rounded=0;" vertex="1" parent="1">
          <mxGeometry x="340" y="180" width="60" height="30" as="geometry" />
        </mxCell>
        <mxCell id="n6OKS5SeyEPI8-EwVOu3-59" value="[cars found]" style="text;html=1;strokeColor=none;fillColor=none;align=center;verticalAlign=middle;whiteSpace=wrap;rounded=0;" vertex="1" parent="1">
          <mxGeometry x="240" y="360" width="80" height="30" as="geometry" />
        </mxCell>
        <mxCell id="n6OKS5SeyEPI8-EwVOu3-61" value="" style="endArrow=none;dashed=1;html=1;dashPattern=1 3;strokeWidth=2;rounded=0;entryX=0.843;entryY=1.3;entryDx=0;entryDy=0;entryPerimeter=0;" edge="1" parent="1" source="n6OKS5SeyEPI8-EwVOu3-29" target="n6OKS5SeyEPI8-EwVOu3-20">
          <mxGeometry width="50" height="50" relative="1" as="geometry">
            <mxPoint x="260" y="310" as="sourcePoint" />
            <mxPoint x="310" y="260" as="targetPoint" />
          </mxGeometry>
        </mxCell>
        <mxCell id="n6OKS5SeyEPI8-EwVOu3-62" value="[no Car found]" style="text;html=1;strokeColor=none;fillColor=none;align=center;verticalAlign=middle;whiteSpace=wrap;rounded=0;" vertex="1" parent="1">
          <mxGeometry x="185" y="260" width="90" height="30" as="geometry" />
        </mxCell>
        <mxCell id="n6OKS5SeyEPI8-EwVOu3-65" value="" style="endArrow=none;dashed=1;html=1;dashPattern=1 3;strokeWidth=2;rounded=0;entryX=1;entryY=0.75;entryDx=0;entryDy=0;" edge="1" parent="1" target="n6OKS5SeyEPI8-EwVOu3-20">
          <mxGeometry width="50" height="50" relative="1" as="geometry">
            <mxPoint x="290" y="410" as="sourcePoint" />
            <mxPoint x="400" y="260" as="targetPoint" />
          </mxGeometry>
        </mxCell>
        <mxCell id="n6OKS5SeyEPI8-EwVOu3-69" value="" style="endArrow=none;dashed=1;html=1;dashPattern=1 3;strokeWidth=2;rounded=0;entryX=1;entryY=0.75;entryDx=0;entryDy=0;" edge="1" parent="1">
          <mxGeometry width="50" height="50" relative="1" as="geometry">
            <mxPoint x="119.5" y="605" as="sourcePoint" />
            <mxPoint x="119.5" y="450" as="targetPoint" />
          </mxGeometry>
        </mxCell>
        <mxCell id="n6OKS5SeyEPI8-EwVOu3-71" value="" style="endArrow=none;dashed=1;html=1;dashPattern=1 3;strokeWidth=2;rounded=0;entryX=1;entryY=0.75;entryDx=0;entryDy=0;" edge="1" parent="1">
          <mxGeometry width="50" height="50" relative="1" as="geometry">
            <mxPoint x="289.40999999999997" y="595" as="sourcePoint" />
            <mxPoint x="289.40999999999997" y="440" as="targetPoint" />
          </mxGeometry>
        </mxCell>
        <mxCell id="n6OKS5SeyEPI8-EwVOu3-72" value="" style="endArrow=block;dashed=1;endFill=0;endSize=12;html=1;rounded=0;" edge="1" parent="1">
          <mxGeometry width="160" relative="1" as="geometry">
            <mxPoint x="300" y="430" as="sourcePoint" />
            <mxPoint x="580" y="430" as="targetPoint" />
          </mxGeometry>
        </mxCell>
      </root>
    </mxGraphModel>
  </diagram>
</mxfile>
